<svg xmlns="http://www.w3.org/2000/svg" viewBox="0 0 128 160" x="0px" y="0px"><title>21</title><g data-name="1"><path d="M55.88076,37.10271a4.1209,4.1209,0,0,1-.76728-2.59955,3.59308,3.59308,0,0,1,3.51679-3.42865c1.933,0,3.05932,2.06268,3.30224,2.06268.27765,0,1.45148-2.06268,3.30164-2.06268a3.59258,3.59258,0,0,1,3.51666,3.42865,4.11848,4.11848,0,0,1-.76727,2.59955c-.96906,1.47351-5.14063,4.97809-6.045,4.97809C61.0533,42.0808,56.84365,38.56346,55.88076,37.10271Zm22.95086,9.42975a5.2,5.2,0,0,0,.96857,3.28125c1.21515,1.844,6.529,6.28381,7.64648,6.28381,1.1413,0,6.40729-4.42346,7.63068-6.28381a5.20061,5.20061,0,0,0,.96844-3.28125,4.53531,4.53531,0,0,0-4.439-4.32825c-2.33527,0-3.81738,2.60388-4.16779,2.60388-.30706,0-1.72809-2.60388-4.16858-2.60388A4.535,4.535,0,0,0,78.83162,46.53246Zm1.30072-19.38227c.7312,0,4.10327-2.83251,4.88666-4.02392a3.33085,3.33085,0,0,0,.62-2.10126,2.90392,2.90392,0,0,0-2.84247-2.77173c-1.49579,0-2.44464,1.66748-2.669,1.66748-.19653,0-1.10651-1.66748-2.66949-1.66748A2.90413,2.90413,0,0,0,74.6155,21.025a3.33181,3.33181,0,0,0,.62011,2.10126C76.014,24.30724,79.417,27.15019,80.13234,27.15019Zm33.72278,45.56269A14.43632,14.43632,0,0,0,97.06685,62.33971C89.81063,63.95708,87.00985,73.07323,85.921,73.316c-.95294.21228-7.17127-6.89325-14.75336-5.20343A14.4364,14.4364,0,0,0,60.37429,84.6339a16.55943,16.55943,0,0,0,5.28088,9.52386c5.05255,4.88745,24.63654,15.00061,28.10785,14.22669,3.54645-.79022,16.84369-18.18,19.35571-24.80628A16.55448,16.55448,0,0,0,113.85512,72.71288ZM62.252,97.67577a21.51621,21.51621,0,0,1-6.70569-12.23358,19.6097,19.6097,0,0,1,2.87879-13.902,18.70109,18.70109,0,0,1,11.67767-8.20514,15.813,15.813,0,0,1,3.43524-.37744,19.47588,19.47588,0,0,1,10.63129,3.44678c.204.12591.33557.002.296-.077-2.59583-5.176-6.93994-9.28253-12.90692-10.61249-10.1615-2.26459-18.49518,7.258-19.77191,6.97327-1.45954-.3252-5.21277-12.54224-14.9375-14.70984-9.884-2.203-19.77057,4.14929-22.499,13.90155a22.18573,22.18573,0,0,0,.987,14.56128c3.36634,8.88019,21.18708,32.18536,25.94,33.24475,2.92132.65125,13.59979-4.02191,23.34375-9.50854.23425-.15955.20709-.35743.05346-.47052A22.31526,22.31526,0,0,1,62.252,97.67577Z"/></g><text x="0" y="143" fill="#000000" font-size="5px" font-weight="bold" font-family="'Helvetica Neue', Helvetica, Arial-Unicode, Arial, Sans-serif">Created by Asep Jangkar</text><text x="0" y="148" fill="#000000" font-size="5px" font-weight="bold" font-family="'Helvetica Neue', Helvetica, Arial-Unicode, Arial, Sans-serif">from the Noun Project</text></svg>