<?xml version="1.0" encoding="utf-8"?>
<!-- Generator: Adobe Illustrator 26.4.1, SVG Export Plug-In . SVG Version: 6.00 Build 0)  -->
<svg version="1.1" xmlns="http://www.w3.org/2000/svg" xmlns:xlink="http://www.w3.org/1999/xlink" x="0px" y="0px"
	 viewBox="0 0 100 125" style="enable-background:new 0 0 100 125;" xml:space="preserve">
<style type="text/css">
	.st0{fill:#FFFFFF;}
</style>
<g id="Layer_2">
</g>
<g id="Layer_1">
	<g>
		<path class="st0" d="M47.9,16.8v3.6c0,1.2,1,2.2,2.1,2.2s2.1-1,2.1-2.2v-3.6c0-1.2-1-2.2-2.1-2.2C48.9,14.6,47.9,15.6,47.9,16.8z"
			/>
		<path class="st0" d="M39.7,17.4c-1,0.6-1.4,1.9-0.8,3l1.8,3.1c0.4,0.7,1.1,1.1,1.8,1.1c0.4,0,0.7-0.1,1.1-0.3
			c1-0.6,1.4-1.9,0.8-2.9l-1.8-3.1C42.1,17.2,40.7,16.8,39.7,17.4z"/>
		<path class="st0" d="M57.3,18.1l-1.8,3.1c-0.6,1-0.2,2.4,0.8,2.9c0.4,0.2,0.7,0.3,1.1,0.3c0.7,0,1.5-0.4,1.8-1.1l1.8-3.1
			c0.6-1,0.3-2.4-0.8-2.9C59.3,16.6,57.9,17,57.3,18.1z"/>
		<path class="st0" d="M46.1,39.6l2-6.1c0.6-1.8-0.5-3.7-2.2-4.3c-0.3-0.1-0.7-0.2-1-0.2c-1.5,0-2.8,1-3.3,2.4l-2,6.1
			c-1,3.1-3.3,5.5-6.3,6.6c-1.5,0.5-3,0.8-4.4,0.8h-8.2c-3.4,0-6.6,1.8-8.3,4.6L4.1,62.7c-0.5,0.8-0.7,1.7-0.5,2.6s0.8,1.7,1.6,2.2
			C5.7,67.8,6.4,68,7.1,68c1.2,0,2.3-0.6,2.9-1.6l6.7-10.6v11.3c0,0.7-0.1,1.4-0.3,2.1l-6.8,23c-0.6,2,0.4,4.2,2.3,5
			c0.5,0.2,1,0.3,1.5,0.3c1.7,0,3.3-1.2,3.8-2.8l6.9-23.3c0.1-0.5,0.6-0.8,1.1-0.6c0.4,0.1,0.6,0.5,0.6,0.9v21.8c0,2.2,1.7,4,3.9,4
			s4-1.7,4-4L33.8,51c0,0,1.3-0.3,1.9-0.5C40.6,48.7,44.4,44.7,46.1,39.6z"/>
		<circle class="st0" cx="25.1" cy="34.1" r="8.3"/>
		<path class="st0" d="M95.9,62.7l-8.3-13.1c-1.7-2.9-4.9-4.6-8.3-4.6h-8.2c-1.4,0-2.9-0.3-4.4-0.8c-3-1.1-5.3-3.5-6.3-6.6l-2-6.1
			c-0.4-1.4-1.7-2.4-3.3-2.4c-0.4,0-0.7,0.1-1,0.2c-1.8,0.6-2.8,2.5-2.2,4.3l2,6.1c1.7,5.1,5.5,9.1,10.5,10.9
			c0.6,0.2,1.9,0.5,1.9,0.5l0.1,42.5c0,2.2,1.8,4,4,4s3.9-1.9,3.9-4V71.7c0-0.4,0.3-0.8,0.6-0.9c0.5-0.2,1,0.1,1.1,0.6l6.9,23.3
			c0.5,1.7,2.1,2.8,3.8,2.8c0.5,0,1-0.1,1.5-0.3c1.9-0.8,2.9-2.9,2.3-5l-6.8-23c-0.2-0.7-0.3-1.4-0.3-2.1V55.8L90,66.4
			c0.6,1,1.7,1.6,2.9,1.6c0.7,0,1.3-0.2,1.9-0.6c0.8-0.5,1.4-1.3,1.6-2.2C96.6,64.4,96.4,63.4,95.9,62.7z"/>
		<circle class="st0" cx="74.9" cy="34.1" r="8.3"/>
		<path class="st0" d="M58.1,58.6c-2.2-1.5-5.2-1-7,0.8L50,60.5l-1.2-1.2c-2.4-2.4-6.4-2.1-8.3,0.8c-1.5,2.2-1,5.2,0.8,7l7.9,7.9
			c0.5,0.5,1.2,0.5,1.7,0l8.1-8.1C61.3,64.5,61,60.5,58.1,58.6z"/>
	</g>
</g>
</svg>
