<?xml version="1.0" encoding="utf-8"?>
<!-- Generator: Adobe Illustrator 26.4.1, SVG Export Plug-In . SVG Version: 6.00 Build 0)  -->
<svg version="1.1" id="Layer_1" xmlns="http://www.w3.org/2000/svg" xmlns:xlink="http://www.w3.org/1999/xlink" x="0px" y="0px"
	 viewBox="0 0 95.2 85.6" style="enable-background:new 0 0 95.2 85.6;" xml:space="preserve">
<style type="text/css">
	.st0{fill:#FFFFFF;}
</style>
<g id="Layer_2_00000118395028449045891170000016979581775839295379_">
</g>
<path class="st0" d="M45.5,3v3.7c0,1.2,1,2.2,2.1,2.2c1.1,0,2.1-1,2.1-2.2V3c0-1.2-1-2.2-2.1-2.2C46.5,0.8,45.5,1.8,45.5,3z"/>
<path class="st0" d="M37.1,3.7c-1,0.6-1.4,1.9-0.8,3.1l1.8,3.2c0.4,0.7,1.1,1.1,1.8,1.1c0.4,0,0.7-0.1,1.1-0.3
	c1-0.6,1.4-1.9,0.8-2.9l-1.8-3.2C39.6,3.5,38.1,3,37.1,3.7z"/>
<path class="st0" d="M55,4.4l-1.8,3.2c-0.6,1-0.2,2.4,0.8,2.9c0.4,0.2,0.7,0.3,1.1,0.3c0.7,0,1.5-0.4,1.8-1.1l1.8-3.2
	c0.6-1,0.3-2.4-0.8-2.9C57.1,2.8,55.6,3.2,55,4.4z"/>
<circle class="st0" cx="22.3" cy="20.6" r="8.4"/>
<path class="st0" d="M94.3,49.7l-8.4-13.3c-1.7-2.9-5-4.7-8.4-4.7h-8.3c-1.4,0-2.9-0.3-4.5-0.8c-3.1-1.1-5.4-3.6-6.4-6.7l-2-6.2
	c-0.4-1.4-1.7-2.4-3.4-2.4c-0.4,0-0.7,0.1-1,0.2c-1.8,0.6-2.8,2.5-2.2,4.4l2,6.2c1.7,5.2,5.6,9.3,10.7,11.1c0.6,0.2,1.9,0.5,1.9,0.5
	l0.1,43.2c0,2.2,1.8,4.1,4.1,4.1c2.2,0,4-1.9,4-4.1V58.9c0-0.4,0.3-0.8,0.6-0.9c0.5-0.2,1,0.1,1.1,0.6l7,23.7
	c0.5,1.7,2.1,2.8,3.9,2.8c0.5,0,1-0.1,1.5-0.3c1.9-0.8,2.9-2.9,2.3-5.1l-6.9-23.4c-0.2-0.7-0.3-1.4-0.3-2.1V42.7l6.7,10.8
	c0.6,1,1.7,1.6,2.9,1.6c0.7,0,1.3-0.2,1.9-0.6c0.8-0.5,1.4-1.3,1.6-2.2C95,51.5,94.8,50.4,94.3,49.7z"/>
<circle class="st0" cx="72.9" cy="20.6" r="8.4"/>
<path class="st0" d="M55.8,45.6c-2.2-1.5-5.3-1-7.1,0.8l-1.1,1.1l-1.2-1.2c-2.4-2.4-6.5-2.1-8.4,0.8c-1.5,2.2-1,5.3,0.8,7.1l8,8
	c0.5,0.5,1.2,0.5,1.7,0l8.2-8.2C59.1,51.6,58.8,47.5,55.8,45.6z"/>
<circle class="st0" cx="34.2" cy="77.7" r="6.5"/>
<g>
	<path class="st0" d="M43.4,15.7c-0.3-0.1-0.7-0.2-1-0.2c-1.5,0-2.8,1-3.4,2.4l-2,6.2c-1,3.2-3.4,5.6-6.4,6.7
		c-1.5,0.5-3.1,0.8-4.5,0.8h-8.3c-3.5,0-6.7,1.8-8.4,4.7L0.9,49.7c-0.5,0.8-0.7,1.7-0.5,2.6c0.2,0.9,0.8,1.7,1.6,2.2
		c0.5,0.3,1.2,0.5,1.9,0.5c1.2,0,2.3-0.6,2.9-1.6l6.8-10.8v11.5c0,0.7-0.1,1.4-0.3,2.1L6.5,79.7c-0.6,2,0.4,4.3,2.3,5.1
		c0.5,0.2,1,0.3,1.5,0.3c1.7,0,3.4-1.2,3.9-2.8l7-23.7c0.1-0.5,0.6-0.8,1.1-0.6c0.4,0.1,0.6,0.5,0.6,0.9V81c0,2.2,1.7,4.1,4,4.1
		c0.6,0,1.2-0.1,1.7-0.4c-2.1-1.7-3.4-4.2-3.4-7.1c0-3.9,2.4-7.2,5.9-8.4l0.1-31.4c0,0,1.3-0.3,1.9-0.5c5-1.8,8.8-5.9,10.6-11.1
		l2-6.2C46.3,18.2,45.2,16.3,43.4,15.7z"/>
</g>
</svg>
