<svg xmlns="http://www.w3.org/2000/svg" viewBox="0 0 128 160" x="0px" y="0px"><title>29</title><g data-name="1"><path d="M95.17664,107.796l7.47351-7.74457-8.25226-6.74353A58.23751,58.23751,0,0,1,76.855,102.40567C45.26538,91.96945,42.9184,66.924,42.9184,66.924l.02038-.00415a22.317,22.317,0,0,1-.2124-2.91,21.28469,21.28469,0,0,1,2.79456-10.63709l-5.1753-4.22961-12.0661,1.60949L10.52441,37.38394l18.46088-1.46625L27.344,18.16122,43.54706,33.37735l.45019,11.59778,4.9441,4.04016A15.79279,15.79279,0,0,1,59.79071,44.583c9.42578,0,17.06427,8.69842,17.06427,19.42676,0,.15551-.01617.30554-.02032.463l.02032-.004.02161.004c-.00263-.15741-.02161-.30744-.02161-.463,0-10.72834,7.64117-19.42676,17.06561-19.42676,9.4231,0,17.06433,8.69842,17.06433,19.42676a22.11776,22.11776,0,0,1-.21087,2.91l.0188.00415s-1.11664,11.89307-12.14722,22.70319l7.863,6.42584,6.68933-6.93152,4.27765,20.71729Z"/></g><text x="0" y="143" fill="#000000" font-size="5px" font-weight="bold" font-family="'Helvetica Neue', Helvetica, Arial-Unicode, Arial, Sans-serif">Created by Asep Jangkar</text><text x="0" y="148" fill="#000000" font-size="5px" font-weight="bold" font-family="'Helvetica Neue', Helvetica, Arial-Unicode, Arial, Sans-serif">from the Noun Project</text></svg>