<?xml version="1.0" encoding="UTF-8"?>
<svg id="Layer_1" data-name="Layer 1" xmlns="http://www.w3.org/2000/svg" viewBox="0 0 12.79 12.79">
  <defs>
    <style>
      .cls-1 {
        fill: #e30000;
      }
    </style>
  </defs>
  <path class="cls-1" d="M12.29,4.59h-4.09V.5c0-.21-.17-.37-.37-.37h-2.86c-.21,0-.37,.17-.37,.37V4.59H.5c-.21,0-.37,.17-.37,.37v2.86c0,.21,.17,.37,.37,.37H4.59v4.09c0,.21,.17,.37,.37,.37h2.86c.21,0,.37-.17,.37-.37v-4.09h4.09c.21,0,.37-.17,.37-.37v-2.86c0-.21-.17-.37-.37-.37Z"/>
</svg>